<svg xmlns="http://www.w3.org/2000/svg" xmlns:svg="http://www.w3.org/2000/svg" id="Layer_1" width="86" height="86" x="0" style="enable-background:new 0 0 86 86" y="0" version="1.1" viewBox="0 0 86 86" xml:space="preserve"><metadata id="metadata18"/><g id="harbour-logger-ofono-07_2_"><rect id="harbour-logger-ofono-07" width="85.772" height="86" x=".228" style="opacity:0;fill:#fff"/><linearGradient id="SVGID_1_" x1="12.447" x2="72.825" y1="73.355" y2="12.977" gradientUnits="userSpaceOnUse"><stop style="stop-color:#e36c34" id="stop6" offset="0"/><stop style="stop-color:#ffb757" id="stop8" offset="1"/></linearGradient><ellipse style="fill:url(#SVGID_1_)" id="ellipse10" cx="42.636" cy="43.166" rx="42.636" ry="42.75"/></g><rect style="opacity:.8;fill:#c92600;fill-opacity:1;stroke:#000;stroke-width:0;stroke-linecap:butt;stroke-linejoin:miter;stroke-miterlimit:0;stroke-opacity:1;stroke-dasharray:none" id="rect3017" width="7" height="56" x="39.515" y="11.005" ry="0" transform="matrix(0.98162718,0.190809,-0.190809,0.98162718,0,0)"/><rect style="opacity:.8;fill:#797979;fill-opacity:1;stroke:#000;stroke-width:0;stroke-linecap:butt;stroke-linejoin:miter;stroke-miterlimit:0;stroke-opacity:1;stroke-dasharray:none" id="rect3017-4" width="7" height="56" x="54.315" y="1.005" ry="0" transform="matrix(0.98162718,0.190809,-0.190809,0.98162718,0,0)"/><rect style="opacity:.8;fill:#797979;fill-opacity:1;stroke:#000;stroke-width:0;stroke-linecap:butt;stroke-linejoin:miter;stroke-miterlimit:0;stroke-opacity:1;stroke-dasharray:none" id="rect3017-4-9" width="7" height="42.5" x="63.115" y="8.805" ry="0" transform="matrix(0.98162718,0.190809,-0.190809,0.98162718,0,0)"/><rect style="opacity:.8;fill:#c92600;fill-opacity:1;stroke:#000;stroke-width:0;stroke-linecap:butt;stroke-linejoin:miter;stroke-miterlimit:0;stroke-opacity:1;stroke-dasharray:none" id="rect3017-4-9-1" width="7" height="42.5" x="30.715" y="16.805" ry="0" transform="matrix(0.98162718,0.190809,-0.190809,0.98162718,0,0)"/><rect style="opacity:.8;fill:#c92600;fill-opacity:1;stroke:#000;stroke-width:0;stroke-linecap:butt;stroke-linejoin:miter;stroke-miterlimit:0;stroke-opacity:1;stroke-dasharray:none" id="rect3017-4-9-2" width="7" height="20.4" x="21.915" y="27.805" ry="0" transform="matrix(0.98162718,0.190809,-0.190809,0.98162718,0,0)"/><rect style="opacity:.8;fill:#797979;fill-opacity:1;stroke:#000;stroke-width:0;stroke-linecap:butt;stroke-linejoin:miter;stroke-miterlimit:0;stroke-opacity:1;stroke-dasharray:none" id="rect3017-4-9-2-1" width="7" height="20.4" x="71.915" y="19.805" ry="0" transform="matrix(0.98162718,0.190809,-0.190809,0.98162718,0,0)"/></svg>